<svg width="32" height="27" viewBox="0 0 32 27" fill="none" xmlns="http://www.w3.org/2000/svg">
<path d="M10.7047 0.300134C14.5229 -0.165019 18.3761 -0.00129005 22.205 0.203806C22.711 0.188474 23.2159 0.0892529 23.7222 0.14624C24.1559 0.198599 24.5444 0.430597 24.8919 0.690365C25.592 1.2235 26.1794 1.9004 26.6784 2.63226C27.2689 3.5105 27.3973 4.62421 27.9925 5.501C28.7782 6.62888 30.0312 7.30578 30.7779 8.46751C31.2823 9.22136 31.3675 10.1878 31.2722 11.075C31.1894 11.872 30.7844 12.5931 30.2618 13.1714C29.5636 13.9357 28.7622 14.623 28.2411 15.5382C27.8977 16.1405 27.7656 16.8408 27.429 17.4451C26.6276 18.6812 25.4577 19.6046 24.2364 20.3665C22.4698 21.4611 20.5475 22.2439 18.7026 23.18C17.8362 23.6125 17.0037 24.1175 16.1162 24.5049C15.2968 24.8723 14.4 24.9677 13.5291 25.1306C12.7715 25.2498 12.0318 25.4615 11.2842 25.6319C9.45089 26.0415 7.56312 26.3597 5.68405 26.154C4.39992 26.0117 3.09447 25.5341 2.19266 24.5462C1.84231 24.139 1.51553 23.6865 1.33236 23.1725C1.22605 21.6116 1.43222 20.0541 1.62969 18.5102C1.81651 17.024 1.92899 15.4983 1.61735 14.021C1.31525 12.8509 0.598573 11.8555 0.23813 10.7076C-0.0443346 9.83896 -0.107447 8.86005 0.224385 7.99657C0.761544 6.97919 1.82941 6.38676 2.32113 5.33582C2.60135 4.77666 2.65661 4.1362 2.63725 3.51715C3.51606 2.61057 4.61618 1.96346 5.76652 1.49686C7.34714 0.855541 9.02509 0.515643 10.7047 0.300134Z" fill="#0D0D0D"/>
</svg>
